<svg width="20" height="20" viewBox="0 0 20 20" fill="none" xmlns="http://www.w3.org/2000/svg">
<path fill-rule="evenodd" clip-rule="evenodd" d="M4.7253 17.4626L5.46504 6.99094H6.99369V9.51007C6.99369 9.8499 7.26716 10.1265 7.60456 10.1265C7.94197 10.1265 8.21543 9.8499 8.21543 9.51007V6.99094H12.8004V9.51007C12.8004 9.8499 13.0749 10.1265 13.4123 10.1265C13.7497 10.1265 14.0231 9.8499 14.0231 9.51007V6.99094H15.5311L16.2699 17.4626H4.7253ZM8.15247 4.51528C8.15247 3.24781 9.16863 2.21645 10.4159 2.21645C11.6633 2.21645 12.6784 3.24781 12.6784 4.51528V5.77287H8.15247V4.51528ZM16.6584 6.25197L16.6092 6.25592L16.6584 6.24703C16.625 5.91707 16.3614 5.66911 16.0446 5.66911H13.9474V4.39473C13.9474 2.4308 12.3627 0.833374 10.413 0.833374C8.4643 0.833374 6.87859 2.4308 6.87859 4.39473V5.66911H4.78235C4.46658 5.66911 4.19705 5.92497 4.16853 6.25197L3.33337 18.0425C3.33337 18.1995 3.38256 18.3497 3.47601 18.4762C3.57143 18.6046 3.74849 18.6816 3.9472 18.6816H16.8788C17.0568 18.6816 17.2083 18.6204 17.3303 18.4979C17.4582 18.3695 17.5231 18.1788 17.4926 18.0276L16.6584 6.25197Z" fill="#222222"/>
</svg>
